<?xml version="1.0" encoding="utf-8"?>
<!-- Generator: Adobe Illustrator 27.9.0, SVG Export Plug-In . SVG Version: 6.00 Build 0)  -->
<svg version="1.1" id="Layer_1" xmlns="http://www.w3.org/2000/svg" xmlns:xlink="http://www.w3.org/1999/xlink" x="0px" y="0px"
	 viewBox="0 0 4000 4000" style="enable-background:new 0 0 4000 4000;" xml:space="preserve">
<style type="text/css">
	.st0{fill:#FFFFFF;}
</style>
<g>
	<path class="st0" d="M1900.9,1671.7c0-228.4-185.8-414.2-414.1-414.2H1067v169.7h419.8c134.7,0,244.4,109.6,244.4,244.5
		c0,134.7-109.6,244.4-244.4,244.4H1067v169.7h383.4c95.3,106.5,173.7,317.2,224.5,495.4c27.4,96,114.8,162.2,214.6,162.2
		c-26.7-130.9-110.4-470.1-251.2-687.3C1791.7,1995.4,1900.9,1846.4,1900.9,1671.7z"/>
	<path class="st0" d="M2098,2573.7c0,93.7,76,169.7,169.7,169.7V1256.6H2098V2573.7z"/>
	<rect x="2430.6" y="2001.7" class="st0" width="169.7" height="741.7"/>
	<path class="st0" d="M2763.3,1256.6v1486.8c93.7,0,169.7-76,169.7-169.7v-1317L2763.3,1256.6L2763.3,1256.6z"/>
</g>
</svg>
