<?xml version="1.0" encoding="utf-8"?>
<!-- Generator: Adobe Illustrator 27.9.0, SVG Export Plug-In . SVG Version: 6.00 Build 0)  -->
<svg version="1.1" id="Layer_1" xmlns="http://www.w3.org/2000/svg" xmlns:xlink="http://www.w3.org/1999/xlink" x="0px" y="0px"
	 viewBox="0 0 1866 1486.8" style="enable-background:new 0 0 1866 1486.8;" xml:space="preserve">
<g>
	<path d="M833.9,415.1c0-228.4-185.8-414.2-414.1-414.2H0v169.7h419.8c134.7,0,244.4,109.6,244.4,244.5
		c0,134.7-109.6,244.4-244.4,244.4H0v169.7h383.4c95.3,106.5,173.7,317.2,224.5,495.4c27.4,96,114.8,162.2,214.6,162.2
		c-26.7-130.9-110.4-470.1-251.2-687.3C724.7,738.8,833.9,589.8,833.9,415.1z"/>
	<path d="M1031,1317.1c0,93.7,76,169.7,169.7,169.7V0H1031V1317.1z"/>
	<rect x="1363.6" y="745.1" width="169.7" height="741.7"/>
	<path d="M1696.3,0v1486.8c93.7,0,169.7-76,169.7-169.7V0.1L1696.3,0L1696.3,0z"/>
</g>
</svg>
